<?xml version="1.0" encoding="UTF-8"?>
<svg xmlns="http://www.w3.org/2000/svg" viewBox="0 0 960 420" role="img" aria-labelledby="title desc">
  <title id="title">Bucket Placer overview</title>
  <desc id="desc">Diagram of JB-DET cam-to-bucket clearance, catalogue pool of 32, and selection of the best 16 for intake and exhaust ports.</desc>

  <rect width="960" height="420" fill="#f7fafc"/>

  <!-- Left: OHC stack -->
  <g transform="translate(40,36)">
    <text x="0" y="0" font-family="system-ui,Segoe UI,sans-serif" font-size="15" font-weight="700" fill="#2d7a71" letter-spacing="0.08em">OHC STACK</text>

    <circle cx="120" cy="48" r="28" fill="none" stroke="#334155" stroke-width="3"/>
    <text x="160" y="52" font-family="system-ui,Segoe UI,sans-serif" font-size="13" fill="#475569">cam</text>

    <rect x="92" y="76" width="56" height="18" fill="#4fa49a" opacity="0.35"/>
    <text x="160" y="90" font-family="system-ui,Segoe UI,sans-serif" font-size="13" font-weight="600" fill="#2d7a71">clearance</text>
    <text x="160" y="108" font-family="system-ui,Segoe UI,sans-serif" font-size="12" fill="#64748b">IN 0.20 / EX 0.30 mm</text>

    <rect x="92" y="94" width="56" height="36" fill="#e2e8f0" stroke="#334155" stroke-width="2"/>
    <text x="100" y="116" font-family="system-ui,Segoe UI,sans-serif" font-size="12" fill="#334155">bucket</text>

    <rect x="114" y="130" width="12" height="110" fill="#e2e8f0" stroke="#334155" stroke-width="2"/>
    <text x="160" y="190" font-family="system-ui,Segoe UI,sans-serif" font-size="13" fill="#475569">stem</text>

    <polygon points="114,240 126,240 168,310 72,310" fill="#e2e8f0" stroke="#334155" stroke-width="2"/>
    <line x1="96" y1="268" x2="108" y2="252" stroke="#4fa49a" stroke-width="3"/>
    <line x1="132" y1="252" x2="144" y2="268" stroke="#4fa49a" stroke-width="3"/>
    <text x="180" y="270" font-family="system-ui,Segoe UI,sans-serif" font-size="13" fill="#2d7a71">seat</text>
    <text x="80" y="340" font-family="system-ui,Segoe UI,sans-serif" font-size="12" fill="#64748b">chamber / piston</text>
  </g>

  <!-- Centre: formula -->
  <g transform="translate(360,36)">
    <text x="0" y="0" font-family="system-ui,Segoe UI,sans-serif" font-size="15" font-weight="700" fill="#2d7a71" letter-spacing="0.08em">FORMULA</text>
    <rect x="0" y="24" width="280" height="120" rx="4" fill="#ffffff" stroke="#cbd5e1" stroke-width="1.5"/>
    <text x="16" y="56" font-family="ui-monospace,SFMono-Regular,Menlo,monospace" font-size="13" fill="#0f172a">new = old</text>
    <text x="16" y="80" font-family="ui-monospace,SFMono-Regular,Menlo,monospace" font-size="13" fill="#0f172a">    + (measured - target)</text>
    <text x="16" y="112" font-family="system-ui,Segoe UI,sans-serif" font-size="12" fill="#64748b">Too tight = thinner bucket</text>
    <text x="16" y="132" font-family="system-ui,Segoe UI,sans-serif" font-size="12" fill="#64748b">Too loose = thicker bucket</text>

    <text x="0" y="180" font-family="system-ui,Segoe UI,sans-serif" font-size="15" font-weight="700" fill="#2d7a71" letter-spacing="0.08em">MEASURE</text>
    <text x="0" y="208" font-family="system-ui,Segoe UI,sans-serif" font-size="13" fill="#334155">Centre = pin reading - 18.83 mm</text>
    <text x="0" y="230" font-family="system-ui,Segoe UI,sans-serif" font-size="13" fill="#64748b">Printed sleeve + M3 pin finds the</text>
    <text x="0" y="250" font-family="system-ui,Segoe UI,sans-serif" font-size="13" fill="#64748b">worn dish, not the high rim.</text>
  </g>

  <!-- Right: 32 to 16 -->
  <g transform="translate(680,36)">
    <text x="0" y="0" font-family="system-ui,Segoe UI,sans-serif" font-size="15" font-weight="700" fill="#2d7a71" letter-spacing="0.08em">PLACE</text>

    <rect x="0" y="24" width="220" height="100" rx="4" fill="#ffffff" stroke="#cbd5e1" stroke-width="1.5"/>
    <text x="14" y="52" font-family="system-ui,Segoe UI,sans-serif" font-size="13" font-weight="600" fill="#334155">Pool of 32</text>
    <text x="14" y="74" font-family="system-ui,Segoe UI,sans-serif" font-size="12" fill="#64748b">2 sets, pin-measured</text>
    <g fill="#4fa49a" opacity="0.85">
      <rect x="14" y="90" width="10" height="14" rx="1"/>
      <rect x="28" y="90" width="10" height="14" rx="1"/>
      <rect x="42" y="90" width="10" height="14" rx="1"/>
      <rect x="56" y="90" width="10" height="14" rx="1"/>
      <rect x="70" y="90" width="10" height="14" rx="1"/>
      <rect x="84" y="90" width="10" height="14" rx="1"/>
      <rect x="98" y="90" width="10" height="14" rx="1"/>
      <rect x="112" y="90" width="10" height="14" rx="1"/>
    </g>
    <text x="130" y="102" font-family="system-ui,Segoe UI,sans-serif" font-size="12" fill="#64748b">...</text>

    <path d="M110 140 L110 168" stroke="#4fa49a" stroke-width="2.5" fill="none" marker-end="url(#arrow)"/>
    <text x="120" y="158" font-family="system-ui,Segoe UI,sans-serif" font-size="12" font-weight="600" fill="#2d7a71">selectBestSixteen()</text>

    <rect x="0" y="176" width="220" height="120" rx="4" fill="#ffffff" stroke="#4fa49a" stroke-width="2"/>
    <text x="14" y="204" font-family="system-ui,Segoe UI,sans-serif" font-size="13" font-weight="600" fill="#334155">Best 16 on the head</text>
    <text x="14" y="228" font-family="system-ui,Segoe UI,sans-serif" font-size="12" fill="#64748b">4 cyl x 2 IN x 2 EX</text>
    <text x="14" y="252" font-family="system-ui,Segoe UI,sans-serif" font-size="12" fill="#64748b">IN = 0.20 mm target</text>
    <text x="14" y="274" font-family="system-ui,Segoe UI,sans-serif" font-size="12" fill="#64748b">EX = 0.30 mm target</text>
  </g>

  <defs>
    <marker id="arrow" markerWidth="8" markerHeight="8" refX="4" refY="4" orient="auto">
      <path d="M0,0 L8,4 L0,8 Z" fill="#4fa49a"/>
    </marker>
  </defs>

  <text x="40" y="400" font-family="system-ui,Segoe UI,sans-serif" font-size="12" fill="#94a3b8">Automica Labs / bucket-placer / JB-DET</text>
</svg>
